<svg version="1.1" id="Layer_1" xmlns="http://www.w3.org/2000/svg" xmlns:xlink="http://www.w3.org/1999/xlink" x="0px" y="0px"
   width="32px" height="32px" viewBox="0 0 32 32" xml:space="preserve">
<g class="github-icon">
<path class="path1" fill="currentColor" d="M28.604 10.434c0.302-1.599 0.605-4.465-0.317-6.684-2.895 0.23-5.157 1.599-6.453 2.593-1.743-0.475-3.716-0.749-5.834-0.749s-4.091 0.274-5.877 0.749c-1.253-0.994-3.515-2.362-6.41-2.593-0.922 2.247-0.619 5.085-0.317 6.727-1.354 1.671-2.146 3.788-2.146 6.179 0 8.599 5.531 11.667 14.75 11.667s14.75-3.068 14.75-11.711c0-2.391-0.792-4.465-2.146-6.179v0zM16.029 26.408c-7.994 0-10.861-2.449-10.861-6.136 0-4.307 3.486-5.229 5.33-5.229s1.844 0.303 5.531 0.303c3.688 0 3.688-0.303 5.531-0.303s5.33 0.922 5.33 5.229c0 3.688-2.866 6.136-10.861 6.136v0zM11.319 17.809c-0.85 0-1.541 0.619-1.541 2.766s0.691 2.766 1.541 2.766c0.85 0 1.541-0.619 1.541-2.766s-0.691-2.766-1.541-2.766v0zM20.537 17.809c-0.85 0-1.541 0.619-1.541 2.766s0.691 2.766 1.541 2.766c0.85 0 1.541-0.619 1.541-2.766s-0.691-2.766-1.541-2.766v0z"></path>
</g>
</svg>