<svg version="1.1" id="Layer_1" xmlns="http://www.w3.org/2000/svg" xmlns:xlink="http://www.w3.org/1999/xlink" x="0px" y="0px"
   width="32px" height="32px" viewBox="0 0 32 32" xml:space="preserve">
<g class="twitter-icon">
<path class="path1" fill="currentColor" d="M27.264 7.788c1.268-0.749 2.218-1.945 2.665-3.356-1.152 0.691-2.463 1.196-3.817 1.469-1.138-1.152-2.708-1.901-4.451-1.901-3.342 0-6.035 2.694-6.035 6.035 0 0.475 0.029 0.965 0.13 1.397-5.013-0.274-9.449-2.55-12.46-6.208-0.504 0.893-0.821 1.815-0.821 2.938 0 2.074 1.066 3.918 2.708 5.013-0.994-0.029-1.916-0.303-2.737-0.749v0.072c0 2.938 2.089 5.387 4.854 5.935-0.519 0.144-1.066 0.216-1.613 0.216-0.375 0-0.749-0.043-1.124-0.115 0.749 2.391 3.010 4.177 5.632 4.206-2.045 1.642-4.681 2.866-7.505 2.866-0.49 0-0.965-0.029-1.44-0.101 2.665 1.714 5.877 2.463 9.291 2.463 11.12 0 17.199-9.219 17.199-17.213v-0.792c1.167-0.85 2.189-1.901 3.011-3.14-1.095 0.49-2.247 0.821-3.486 0.965z"></path>
</g>
</svg>